# xmcd
#
# Track frame offsets:
#	183
#	11163
#	29563
#	43980
#	59375
#	74988
#	94683
#	105765
#	126823
#	141208
#	157930
#	175083
#	187125
#	206398
#	218098
#	232668
#
# Disc length: 3357 seconds
#
# Revision: 1
# Processed by: cddbd v1.4PL0 Copyright (c) Steve Scherf et al.
# Submitted via: audiograbber 1.80
#
DISCID=e10d1b10
DTITLE=Wim Pols - CUiG - In The Eye Of The Storm
DYEAR=1900
DGENRE=
TTITLE0=God Loves The Little Children
TTITLE1=The Love She Was Longing For
TTITLE2=A Beautiful Sight
TTITLE3=Hold Us In Your Hand
TTITLE4=It's Not What We Say (Feat. Thirza) 
TTITLE5=Take The Step Today
TTITLE6=Till The Answer Comes
TTITLE7=In The Eye Of The Storm
TTITLE8=Don't Forget
TTITLE9=Like A Child Again
TTITLE10=Rodeo Preacher
TTITLE11=I'm Gonna Live Forever
TTITLE12=Beautiful At Heart
TTITLE13=I Thank God
TTITLE14=Easier Said Than Done
TTITLE15=Somebody's Praying
EXTD=
EXTT0=
EXTT1=
EXTT2=
EXTT3=
EXTT4=
EXTT5=
EXTT6=
EXTT7=
EXTT8=
EXTT9=
EXTT10=
EXTT11=
EXTT12=
EXTT13=
EXTT14=
EXTT15=
PLAYORDER=
